<svg width="32" height="23" viewBox="0 0 32 23" fill="none" xmlns="http://www.w3.org/2000/svg">
<path d="M27.9 18.6236C28.6648 16.9595 29.0897 15.1042 29.0897 13.1498C29.0897 5.88449 23.1981 0 15.9399 0C8.68161 0 2.79004 5.89157 2.79004 13.1498C2.79004 15.1042 3.21491 16.9595 3.97968 18.6236H27.9Z" fill="#6200FF"/>
<path d="M7.90287 16.9233L6.97523 15.9957L6.77696 15.7974C6.40874 15.4292 5.65105 15.6275 5.23326 16.2152L1.8626 20.9101C1.55811 21.3349 1.52978 21.8306 1.79887 22.0997C2.06795 22.3688 2.56364 22.3476 2.98851 22.036L7.68336 18.6653C8.2711 18.2475 8.46937 17.4898 8.10115 17.1216L7.90287 16.9233Z" fill="url(#paint0_linear_54_4005)"/>
<path d="M24.1046 16.9233L25.0322 15.9957L25.2305 15.7974C25.5987 15.4292 26.3564 15.6275 26.7742 16.2152L30.1449 20.9101C30.4494 21.3349 30.4777 21.8306 30.2086 22.0997C29.9395 22.3688 29.4438 22.3476 29.019 22.036L24.3241 18.6653C23.7364 18.2475 23.5381 17.4898 23.9063 17.1216L24.1046 16.9233Z" fill="url(#paint1_linear_54_4005)"/>
<path d="M12.2505 20.627H19.7707C20.2239 20.627 20.5921 20.9952 20.5921 21.4484C20.5921 21.9016 20.3301 22.0786 19.7707 22.2698C19.2113 22.4681 17.5189 22.6947 16.0248 22.6947C14.5235 22.6947 12.6966 22.3973 12.2576 22.2698C11.8114 22.1353 11.4361 21.8945 11.4361 21.4484C11.4291 20.9952 11.7973 20.627 12.2505 20.627Z" fill="#5600BD"/>
<path d="M0.311405 16.9098C0.502598 14.7075 10.5013 13.8366 16.322 13.8578C21.6754 13.879 31.5041 14.6792 31.7095 16.8602C31.8936 18.8642 23.991 21.9941 16.322 22.0791C8.34858 22.1711 0.134375 18.9492 0.311405 16.9098Z" fill="#1B2026"/>
<path d="M17.2072 21.7598C14.318 21.7811 11.4077 21.6607 8.7168 21.2642C11.2023 21.8519 14.0206 22.1139 16.8177 22.0856C19.027 22.0643 21.2789 21.6961 23.3112 21.25C21.3284 21.4908 19.2607 21.7457 17.2072 21.7598Z" fill="#EFC263"/>
<path d="M31.7096 16.9523C31.6033 19.3104 22.681 21.0453 15.8972 21.0382C9.1205 21.0311 0.545153 19.4732 0.311473 16.9948C0.212336 15.9751 1.51528 14.5801 2.8253 14.2969C2.76157 14.7572 3.71754 15.1041 4.09992 15.3095C6.57126 16.6337 9.36126 14.8846 16.485 14.8917C22.2986 14.8988 25.2303 15.7414 27.4113 14.6793C27.5954 14.5943 28.1902 14.2827 28.9479 14.3748C30.3358 14.5376 31.7521 15.9751 31.7096 16.9523Z" fill="black"/>
<path d="M9.8032 19.7195C10.7559 19.8534 11.5874 19.5413 11.6604 19.0223C11.7333 18.5033 11.0201 17.9741 10.0674 17.8401C9.11463 17.7062 8.28315 18.0184 8.2102 18.5373C8.13725 19.0563 8.85046 19.5856 9.8032 19.7195Z" fill="#2D0061"/>
<path d="M10.2395 20.0104C10.0837 20.0104 9.92791 19.9962 9.76504 19.975C9.26228 19.9041 8.802 19.7271 8.46918 19.4793C8.08679 19.196 7.90976 18.849 7.95933 18.495C8.0089 18.148 8.27799 17.8577 8.7241 17.6948C9.11357 17.5461 9.60926 17.5036 10.112 17.5744C10.6148 17.6452 11.0751 17.8223 11.4079 18.0701C11.7903 18.3534 11.9673 18.7003 11.9177 19.0544C11.8682 19.4014 11.5991 19.6917 11.153 19.8546C10.8839 19.9608 10.5723 20.0104 10.2395 20.0104ZM9.63758 18.0701C8.98611 18.0701 8.50459 18.3038 8.46918 18.58C8.44794 18.7287 8.56124 18.9128 8.78075 19.0756C9.04276 19.2739 9.43222 19.4155 9.84293 19.4722C10.2536 19.5288 10.6644 19.5005 10.9759 19.3801C11.2309 19.281 11.3866 19.1394 11.4079 18.9907C11.4291 18.842 11.3158 18.6579 11.0963 18.495C10.8343 18.2967 10.4448 18.1551 10.0341 18.0984C9.89958 18.0772 9.76504 18.0701 9.63758 18.0701Z" fill="#8000FF"/>
<path d="M15.8973 20.0833C16.8593 20.0833 17.6392 19.6585 17.6392 19.1344C17.6392 18.6104 16.8593 18.1855 15.8973 18.1855C14.9352 18.1855 14.1553 18.6104 14.1553 19.1344C14.1553 19.6585 14.9352 20.0833 15.8973 20.0833Z" fill="#2D0061"/>
<path d="M15.8973 20.3456C15.3874 20.3456 14.9059 20.2323 14.5448 20.034C14.127 19.8074 13.9004 19.4888 13.9004 19.1347C13.9004 18.7807 14.127 18.462 14.5448 18.2354C14.913 18.0371 15.3945 17.9238 15.8973 17.9238C16.4071 17.9238 16.8887 18.0371 17.2498 18.2354C17.6676 18.462 17.8942 18.7807 17.8942 19.1347C17.8942 19.4888 17.6676 19.8074 17.2498 20.034C16.8816 20.2323 16.4001 20.3456 15.8973 20.3456ZM15.8973 18.4408C15.0475 18.4408 14.4173 18.809 14.4173 19.1347C14.4173 19.4605 15.0475 19.8287 15.8973 19.8287C16.747 19.8287 17.3773 19.4605 17.3773 19.1347C17.3773 18.8019 16.74 18.4408 15.8973 18.4408Z" fill="#8000FF"/>
<path d="M21.9858 19.7189C22.9386 19.585 23.6518 19.0557 23.5788 18.5367C23.5059 18.0178 22.6744 17.7056 21.7217 17.8395C20.7689 17.9735 20.0557 18.5027 20.1287 19.0217C20.2016 19.5407 21.0331 19.8528 21.9858 19.7189Z" fill="#2D0061"/>
<path d="M21.5553 20.0111C21.2225 20.0111 20.9109 19.9615 20.6418 19.8624C20.1957 19.6924 19.9266 19.4092 19.8771 19.0622C19.8275 18.7152 20.0116 18.3612 20.3869 18.0779C20.7197 17.8301 21.18 17.6531 21.6828 17.5822C22.1856 17.5114 22.6742 17.5539 23.0707 17.7026C23.5168 17.8726 23.7859 18.1558 23.8355 18.5028C23.885 18.8498 23.7009 19.2038 23.3256 19.4871C22.9928 19.7349 22.5325 19.912 22.0298 19.9828C21.8669 20.004 21.704 20.0111 21.5553 20.0111ZM22.1501 18.0708C22.0227 18.0708 21.8952 18.0779 21.7536 18.0992C21.3429 18.1558 20.9534 18.3045 20.6914 18.4957C20.4719 18.6586 20.3586 18.8356 20.3798 18.9914C20.4011 19.1401 20.5569 19.2817 20.8118 19.3809C21.1163 19.4942 21.527 19.5296 21.9448 19.4729C22.3555 19.4163 22.745 19.2676 23.007 19.0764C23.2265 18.9135 23.3398 18.7365 23.3185 18.5807C23.2831 18.3045 22.8016 18.0708 22.1501 18.0708Z" fill="#8000FF"/>
<path d="M15.975 16.9107C22.773 16.9107 28.3671 15.8131 29.0823 14.4039C25.8321 13.5046 21.2434 12.5982 15.7059 12.6549C10.4517 12.7115 5.90553 13.3984 2.75439 14.3048C3.53333 16.0114 9.37533 16.9107 15.975 16.9107Z" fill="#6200FF"/>
<path d="M29.0753 14.0566C29.0753 14.0708 29.0753 14.085 29.0753 14.092C29.0753 15.6499 23.1979 16.9104 15.9467 16.9104C8.69557 16.9104 2.81816 15.6499 2.81816 14.092C2.81816 14.0779 2.81816 14.0637 2.81816 14.0566C2.63405 14.2408 2.54199 14.4319 2.54199 14.6302C2.54199 16.1881 8.54686 17.4485 15.9467 17.4485C23.3466 17.4485 29.3515 16.181 29.3515 14.6302C29.3515 14.4319 29.2594 14.2408 29.0753 14.0566Z" fill="url(#paint2_linear_54_4005)"/>
<path d="M31.6743 16.584C31.6743 16.5981 31.6743 16.6123 31.6743 16.6194C31.6743 18.1773 24.6993 20.7831 16.0177 20.7831C7.33614 20.7831 0.332817 18.1773 0.332817 16.6194C0.332817 16.6052 0.332817 16.5911 0.332817 16.584C0.113299 16.7681 0 16.9593 0 17.1576C0 18.7154 7.14494 21.3213 16.0106 21.3213C24.8763 21.3213 32 18.7154 32 17.1576C32 16.9593 31.8867 16.7681 31.6743 16.584Z" fill="url(#paint3_linear_54_4005)"/>
<path d="M27.5812 12.4335C27.3829 12.4335 27.2201 12.2848 27.1988 12.0865C27.0289 10.4862 26.3491 7.41999 23.7219 4.86368C21.7321 2.93051 19.5015 2.14449 17.9791 1.81876C17.7666 1.77627 17.6321 1.57091 17.6817 1.35848C17.7242 1.14604 17.9295 1.0115 18.142 1.06107C19.7635 1.40805 22.1428 2.24363 24.2601 4.30426C25.5701 5.57888 26.5686 7.1155 27.2271 8.87164C27.6024 9.87717 27.8574 10.9606 27.9707 11.9945C27.9919 12.2069 27.8361 12.3981 27.6237 12.4193C27.6095 12.4335 27.5954 12.4335 27.5812 12.4335Z" fill="white"/>
<defs>
<linearGradient id="paint0_linear_54_4005" x1="1.61314" y1="18.9484" x2="8.28956" y2="18.9484" gradientUnits="userSpaceOnUse">
<stop stop-color="#EA3BE5"/>
<stop offset="0.0161956" stop-color="#E036E5"/>
<stop offset="0.07564" stop-color="#C128E6"/>
<stop offset="0.143" stop-color="#A51BE7"/>
<stop offset="0.2191" stop-color="#8F11E7"/>
<stop offset="0.3079" stop-color="#7E09E8"/>
<stop offset="0.4178" stop-color="#7304E8"/>
<stop offset="0.572" stop-color="#6C01E8"/>
<stop offset="1" stop-color="#6A00E8"/>
</linearGradient>
<linearGradient id="paint1_linear_54_4005" x1="23.72" y1="18.9484" x2="30.3964" y2="18.9484" gradientUnits="userSpaceOnUse">
<stop stop-color="#EA3BE5"/>
<stop offset="0.3284" stop-color="#B523E6"/>
<stop offset="0.625" stop-color="#8C10E7"/>
<stop offset="0.8585" stop-color="#7304E8"/>
<stop offset="1" stop-color="#6A00E8"/>
</linearGradient>
<linearGradient id="paint2_linear_54_4005" x1="2.54165" y1="15.7496" x2="29.3513" y2="15.7496" gradientUnits="userSpaceOnUse">
<stop stop-color="#EFC263"/>
<stop offset="0.1092" stop-color="#EEA87C"/>
<stop offset="0.2975" stop-color="#ED81A2"/>
<stop offset="0.4838" stop-color="#EB62BF"/>
<stop offset="0.6654" stop-color="#EB4DD4"/>
<stop offset="0.8401" stop-color="#EA3FE1"/>
<stop offset="1" stop-color="#EA3BE5"/>
</linearGradient>
<linearGradient id="paint3_linear_54_4005" x1="0.00649347" y1="18.949" x2="32.0027" y2="18.949" gradientUnits="userSpaceOnUse">
<stop stop-color="#EFC263"/>
<stop offset="0.1092" stop-color="#EEA87C"/>
<stop offset="0.2975" stop-color="#ED81A2"/>
<stop offset="0.4838" stop-color="#EB62BF"/>
<stop offset="0.6654" stop-color="#EB4DD4"/>
<stop offset="0.8401" stop-color="#EA3FE1"/>
<stop offset="1" stop-color="#EA3BE5"/>
</linearGradient>
</defs>
</svg>
